<svg width="146" height="24" viewBox="0 0 146 24" fill="none" xmlns="http://www.w3.org/2000/svg">
<path d="M118.223 1.47446C118.388 2.04348 118.92 2.63779 119.478 2.82747C119.693 2.90334 119.959 2.66308 119.858 2.43547C119.642 1.91703 119.072 1.60091 118.717 1.17099C118.514 0.930732 118.134 1.18363 118.21 1.46182L118.223 1.47446Z" fill="white"/>
<path d="M117.057 2.42283C117.349 2.81482 117.703 3.1183 118.084 3.42178C118.476 3.72525 118.844 4.12989 119.262 4.39543C119.503 4.54717 119.769 4.29427 119.706 4.05402C119.503 3.09301 118.096 2.7516 117.463 2.11935C117.26 1.91703 116.88 2.19522 117.057 2.42283Z" fill="white"/>
<path d="M116.233 3.05507C116.715 4.07931 117.741 4.78742 118.692 5.35644C118.983 5.53347 119.275 5.12883 119.047 4.88858C118.299 4.1046 117.336 3.56087 116.576 2.78953C116.385 2.59986 116.132 2.84011 116.233 3.05507Z" fill="white"/>
<path d="M115.612 4.42073C115.98 5.00239 116.461 5.60935 117.044 5.98869C117.298 6.15308 117.602 5.83695 117.45 5.58406C117.108 5.00239 116.487 4.6104 116.056 4.07931C115.853 3.82642 115.448 4.15518 115.612 4.42073Z" fill="white"/>
<path d="M114.535 5.81165C114.941 6.54506 115.473 7.24053 116.271 7.58194C116.538 7.69574 116.791 7.32904 116.639 7.10143C116.208 6.49448 115.587 6.06455 115.144 5.4576C114.877 5.10354 114.32 5.40702 114.535 5.81165Z" fill="white"/>
<path d="M119.325 20.4292C119.718 19.9739 120.124 19.5187 120.377 18.975C120.491 18.7221 120.162 18.3933 119.946 18.6462C119.579 19.1141 119.237 19.6199 118.882 20.0877C118.692 20.3406 119.11 20.6694 119.325 20.4292Z" fill="white"/>
<path d="M117.754 19.9486C118.299 19.3164 118.945 18.7474 119.199 17.9381C119.275 17.6852 118.92 17.4576 118.743 17.6726C118.261 18.2795 117.792 18.8991 117.311 19.5061C117.07 19.8222 117.488 20.2648 117.754 19.9486Z" fill="white"/>
<path d="M116.766 19.4808C117.133 19.0761 117.501 18.6968 117.83 18.2542C118.122 17.8622 118.527 17.2806 118.375 16.7621C118.312 16.5598 118.033 16.4587 117.881 16.6357C117.577 16.9771 117.463 17.4955 117.209 17.8875C116.93 18.3174 116.626 18.7221 116.322 19.1267C116.132 19.3923 116.563 19.721 116.778 19.4808H116.766Z" fill="white"/>
<path d="M115.942 18.7221C116.221 18.2795 116.588 17.8749 116.918 17.4576C117.209 17.0783 117.589 16.6863 117.615 16.1931C117.627 15.9529 117.323 15.7632 117.108 15.9023C116.728 16.1552 116.538 16.6104 116.284 16.9771C115.967 17.445 115.676 17.9128 115.422 18.4186C115.245 18.76 115.727 19.0382 115.929 18.7221H115.942Z" fill="white"/>
<path d="M114.991 17.9381C115.232 17.6473 115.473 17.3691 115.714 17.0909C115.967 16.8001 116.246 16.5345 116.373 16.1678C116.461 15.877 116.132 15.6494 115.879 15.7885C115.587 15.9529 115.41 16.2311 115.207 16.4966C114.966 16.8127 114.725 17.1162 114.485 17.4323C114.206 17.7864 114.7 18.3048 114.991 17.9381Z" fill="white"/>
<path d="M27.5005 1.18362C27.1456 1.61355 26.5754 1.91703 26.3599 2.44811C26.2712 2.66308 26.5373 2.90333 26.7528 2.8401C27.3104 2.65043 27.8426 2.05612 28.0074 1.4871C28.0834 1.20891 27.7032 0.956016 27.5005 1.19627V1.18362Z" fill="white"/>
<path d="M28.7804 2.11936C28.1468 2.7516 26.7401 3.09302 26.5374 4.05403C26.4867 4.30693 26.7401 4.54718 26.9809 4.39544C27.3864 4.14254 27.7032 3.7632 28.0834 3.47236C28.4889 3.16889 28.8691 2.82747 29.1732 2.42284C29.3507 2.18258 28.9705 1.91704 28.7677 2.11936H28.7804Z" fill="white"/>
<path d="M29.6548 2.78953C28.8944 3.56087 27.9313 4.1046 27.1836 4.88858C26.9555 5.12883 27.247 5.52083 27.5385 5.35644C28.4889 4.80007 29.5154 4.07931 29.9969 3.05507C30.0983 2.84011 29.8322 2.59986 29.6548 2.78953Z" fill="white"/>
<path d="M30.1744 4.07931C29.7435 4.6104 29.1225 4.98975 28.7804 5.58406C28.6283 5.83695 28.9325 6.15308 29.1859 5.98869C29.7688 5.60935 30.2504 5.00239 30.6179 4.42073C30.7826 4.15518 30.3771 3.82642 30.1744 4.07931Z" fill="white"/>
<path d="M31.0994 5.47025C30.6559 6.06456 30.0349 6.49448 29.6041 7.11408C29.452 7.32904 29.7055 7.69575 29.9716 7.59459C30.77 7.26582 31.2895 6.55771 31.7077 5.8243C31.9358 5.41967 31.3656 5.11619 31.0994 5.47025Z" fill="white"/>
<path d="M27.3611 20.0877C26.9936 19.6072 26.6641 19.1141 26.2966 18.6462C26.0938 18.3933 25.7517 18.7221 25.8784 18.975C26.1318 19.5314 26.5374 19.9739 26.9302 20.4292C27.133 20.6694 27.5638 20.3406 27.3737 20.0877H27.3611Z" fill="white"/>
<path d="M28.9325 19.5061C28.4509 18.8991 27.982 18.2795 27.5005 17.6726C27.3231 17.4576 26.9682 17.6852 27.0443 17.9381C27.2851 18.7474 27.944 19.329 28.4889 19.9486C28.7551 20.2648 29.1859 19.8096 28.9325 19.5061Z" fill="white"/>
<path d="M29.9209 19.1267C29.6168 18.7221 29.3126 18.3048 29.0338 17.8875C28.7677 17.4955 28.6663 16.9897 28.3622 16.6357C28.2101 16.4587 27.9186 16.5598 27.868 16.7621C27.7286 17.2426 28.0707 17.7358 28.3242 18.1151C28.6537 18.6083 29.0845 19.0256 29.4774 19.4681C29.6928 19.7084 30.1237 19.3796 29.9336 19.1141L29.9209 19.1267Z" fill="white"/>
<path d="M30.808 18.4186C30.5799 17.9634 30.3264 17.5335 30.0476 17.1162C29.7815 16.7116 29.5407 16.1805 29.1352 15.9023C28.9324 15.7632 28.6156 15.9402 28.6283 16.1931C28.6536 16.661 28.9831 17.015 29.2619 17.3817C29.6041 17.8243 29.9969 18.2416 30.2884 18.7221C30.4912 19.0382 30.9727 18.76 30.7953 18.4186H30.808Z" fill="white"/>
<path d="M31.7584 17.4323C31.5177 17.1288 31.2769 16.8127 31.0361 16.4966C30.8333 16.2311 30.6559 15.9529 30.3645 15.7885C30.1237 15.6494 29.7815 15.877 29.8702 16.1678C29.9716 16.484 30.1997 16.7242 30.4152 16.9771C30.694 17.2932 30.9727 17.622 31.2389 17.9508C31.543 18.3175 32.0372 17.799 31.7458 17.445L31.7584 17.4323Z" fill="white"/>
<path d="M84.4127 8.10038C84.0705 8.54295 83.6523 8.97288 83.4496 9.49132C83.3355 9.78215 83.7284 9.93389 83.9311 9.76951C84.362 9.41545 84.6535 8.87172 84.9576 8.40386C85.1857 8.06245 84.6535 7.78426 84.4254 8.08774L84.4127 8.10038Z" fill="white"/>
<path d="M85.2491 8.73263C84.7802 9.18785 84.2987 9.61777 84.0199 10.2247C83.8805 10.5156 84.2226 10.8064 84.4761 10.5788C84.9323 10.1489 85.2998 9.66835 85.718 9.20049C85.9968 8.88437 85.5659 8.4418 85.2618 8.74527L85.2491 8.73263Z" fill="white"/>
<path d="M61.298 8.41651C61.6022 8.87173 61.8937 9.4281 62.3245 9.78216C62.5273 9.94654 62.9201 9.79481 62.8061 9.50397C62.6033 8.97289 62.1851 8.55561 61.843 8.11304C61.6022 7.80956 61.0826 8.08775 61.3107 8.42916L61.298 8.41651Z" fill="white"/>
<path d="M60.525 9.20049C60.9432 9.6557 61.3107 10.1489 61.7669 10.5788C62.0204 10.8064 62.3625 10.5156 62.2231 10.2247C61.9316 9.63041 61.4628 9.18784 60.9939 8.73262C60.6897 8.44179 60.2462 8.88436 60.5377 9.18784L60.525 9.20049Z" fill="white"/>
<path d="M85.87 10.1868C87.0486 7.70839 85.1604 6.89912 83.0187 7.89806C79.9393 9.33958 80.6616 12.1847 83.2342 13.5883C87.5555 15.9529 91.2812 11.7674 91.0784 7.544C90.8503 2.73895 85.7687 1.18363 81.8782 2.3596C78.0638 3.51029 73.1088 7.53136 72.7033 11.7927C72.2724 16.2058 74.6675 19.6705 78.7227 21.3522C89.8239 25.955 99.8732 20.1762 109.454 14.9286C115.891 11.4007 122.785 7.83484 130.338 8.07509C134.38 8.21418 138.309 9.99711 141.414 12.5261C143.454 14.1952 144.823 16.5219 144.43 19.1899C144.189 20.7832 142.896 21.8707 141.464 22.3512C140.108 22.6041 138.955 22.2753 138.017 21.3902C136.725 20.5177 136.966 19.8348 138.765 19.329C138.169 19.7843 138.93 20.72 139.551 20.3533C143.581 17.9634 138.233 14.0435 135.964 17.3817C134.697 19.2405 135.496 20.9729 136.94 22.465C138.702 24.2732 141.325 24.2605 143.416 23.1478C145.608 21.9845 146.229 19.1647 145.938 16.9265C145.57 14.1067 143.137 11.8812 140.957 10.3006C135.648 6.45654 129.172 5.88752 122.95 7.39227C110.467 10.4144 100.557 21.5672 87.3147 21.504C82.157 21.4787 74.8069 19.8222 74.0973 13.6894C73.4383 7.936 82.0683 0.905438 87.4668 3.8517C92.6372 6.67151 89.1015 15.7 83.1455 12.4502C81.2953 11.4386 81.6881 9.85802 83.1708 8.85907C84.3493 8.07509 85.8574 8.13832 85.1731 9.88331C85.021 10.2753 85.68 10.5535 85.8574 10.1741L85.87 10.1868Z" fill="white"/>
<path d="M104.891 16.6483C108.655 14.7769 111.912 11.9444 112.66 7.6578C113.141 4.85064 110.936 0.475505 107.515 2.49869C105.829 3.49763 102.902 6.40596 105.614 8.01186C106.767 8.69468 109.808 7.74632 108.364 6.22893C108.161 6.01397 107.806 6.07719 107.654 6.31744C107.046 7.27846 105.221 7.22788 105.969 5.60933C106.399 4.66096 107.717 3.72524 108.592 3.39647C110.797 2.53662 111.595 5.36908 111.646 6.82324C111.811 11.2363 107.73 13.917 104.638 16.2184C104.372 16.4081 104.6 16.8127 104.904 16.661L104.891 16.6483Z" fill="white"/>
<path d="M105.335 17.1415C110.949 14.3849 116.69 12.5514 123.013 13.5377C125.028 13.8538 126.802 14.916 128.209 16.3575C130.046 18.2289 127.601 20.6567 125.51 20.3027C124.002 20.0498 124.306 17.9887 126.067 18.3807C126.498 18.4818 126.929 17.9002 126.536 17.584C124.686 16.0919 122.874 17.799 123.507 19.8854C124.394 22.8064 129.223 21.3649 129.958 19.0761C131.111 15.5229 126.08 13.0192 123.292 12.5008C117.171 11.3628 110.252 12.9687 105.272 16.6863C104.98 16.9012 104.663 17.2806 105.006 17.1162L105.322 17.1415H105.335Z" fill="white"/>
<path d="M120.162 0.0455795C118.134 0.703114 116.271 1.61355 115.182 3.48499C114.586 4.49658 113.344 6.97498 114.409 8.01186C114.649 8.25211 115.182 8.10037 115.144 7.70838C114.979 6.24158 115.397 4.92651 116.069 3.61144C116.943 1.90438 118.882 1.4871 120.339 0.462861C120.542 0.311122 120.428 -0.0555796 120.162 0.0329346V0.0455795Z" fill="white"/>
<path d="M120.137 0.197323C119.794 1.51239 119.782 2.87804 119.389 4.18046C118.793 6.12778 116.728 6.33009 115.093 6.96234C114.396 7.22788 114.675 8.35328 115.41 8.10038C117.044 7.53136 118.628 7.10143 119.579 5.53347C120.479 4.02872 120.618 1.98025 120.694 0.273192C120.707 -0.0429302 120.225 -0.106155 120.149 0.197323H120.137Z" fill="white"/>
<path d="M85.1603 9.80744C84.9829 9.95918 84.8815 10.0983 84.6281 10.0351C84.5394 10.0098 84.4507 9.94654 84.3873 9.89596C84.324 9.84538 84.2606 9.78215 84.1972 9.74422C84.0198 9.66835 84.0198 9.66835 84.1719 9.74422C84.0071 9.51661 83.8551 9.289 83.7283 9.04875C83.589 8.78321 83.6016 8.46708 83.2848 8.31534C83.044 8.20154 82.8159 8.22683 82.6258 8.40386C82.2076 8.77056 82.5118 9.36487 82.7272 9.74422C82.8286 9.93389 82.9807 10.1109 83.1327 10.2879C83.2088 10.3765 83.3102 10.4523 83.4115 10.5156C83.5129 10.5914 83.5256 10.5914 83.4369 10.5282C83.4876 10.6167 83.5509 10.6799 83.6396 10.7305C84.4127 11.2869 85.5278 11.2237 85.8953 10.2247C86.0474 9.7948 85.4772 9.56719 85.1857 9.82009L85.1603 9.80744Z" fill="white"/>
<path d="M121.429 20.7959C118.502 20.1383 114.18 19.721 114.485 15.7505C114.535 15.1057 113.534 15.1183 113.483 15.7505C113.141 19.9107 117.906 21.6051 121.366 21.3017C121.645 21.2764 121.733 20.8591 121.429 20.7959Z" fill="white"/>
<path d="M121.835 20.8211C121.252 19.2026 119.908 17.6093 118.679 16.4207C117.45 15.2447 115.84 14.7769 114.18 14.7263C113.559 14.701 113.572 15.6494 114.18 15.6873C115.802 15.7758 117.108 16.2057 118.312 17.3311C119.49 18.4312 120.377 19.8475 121.416 21.074C121.581 21.2637 121.923 21.074 121.847 20.8211H121.835Z" fill="white"/>
<path d="M79.5845 16.3828C82.5498 19.6831 87.5681 19.1773 91.4966 18.3554C95.8686 17.4449 101.09 15.485 104.245 12.21C104.575 11.8685 104.055 11.3501 103.726 11.6915C100.862 14.6631 96.6417 16.2943 92.7385 17.3817C88.81 18.4818 83.006 19.4302 79.8759 16.0919C79.6985 15.9023 79.407 16.1805 79.5845 16.3828Z" fill="white"/>
<path d="M61.0572 9.89596C59.9928 7.16466 64.8463 8.79585 64.3648 11.1099C63.9086 13.3354 59.9674 13.5756 58.5227 12.8043C56.229 11.5777 55.8235 8.07509 56.8626 6.00133C60.5123 -1.19361 70.4856 6.39332 71.9936 11.4513C73.9959 18.1404 65.7207 20.9476 60.7658 21.4154C54.7337 21.9845 49.5633 20.0119 44.2915 17.2932C33.0637 11.5019 20.4545 2.3596 7.54123 8.9223C3.46068 10.9961 -2.98962 17.2173 1.55981 22.035C2.9918 23.5524 5.2982 24.564 7.37649 23.6662C9.03659 22.9455 11.5584 20.897 10.9375 18.76C9.37875 13.3986 2.26947 17.7358 6.69217 20.3533C7.31313 20.72 8.07348 19.7969 7.47787 19.329C7.99744 19.6957 8.51702 20.0751 9.03659 20.4418C8.56771 21.1499 7.95942 21.6936 7.21175 22.0856C5.34889 23.2237 3.30861 21.9339 2.30749 20.4797C0.584024 17.976 2.44688 14.9413 4.18302 13.1204C7.12304 10.0224 11.7358 8.37857 15.9051 8.07509C23.3185 7.53136 30.5038 11.5145 36.7894 14.9286C46.3951 20.151 56.4064 25.9676 67.5202 21.3522C71.5754 19.6705 73.9579 16.2058 73.5397 11.7927C73.1088 7.36698 68.1665 3.76318 64.3648 2.3596C60.5123 0.943373 55.3926 2.92862 55.1645 7.54401C54.9491 12.0835 58.6241 15.5609 63.0088 13.5883C65.9742 12.2605 65.9362 9.41545 63.2242 7.89806C61.0826 6.6968 59.2577 7.83484 60.3729 10.1868C60.5503 10.5661 61.222 10.3006 61.0572 9.89596Z" fill="white"/>
<path d="M41.6049 16.2058C38.5635 13.9423 35.5982 11.9571 34.7364 8.03716C33.9381 4.45866 36.7007 1.86645 39.7041 4.82536C41.1487 6.25423 39.6154 7.94864 38.5889 6.30481C38.4368 6.06456 38.0947 6.00133 37.8792 6.21629C36.4092 7.75897 39.3746 8.50502 40.4771 8.06245C43.6072 6.79796 40.2363 3.38384 38.7283 2.48605C35.294 0.450225 33.2791 4.76213 33.5579 7.49343C34.0141 11.818 37.6891 14.8148 41.3515 16.623C41.6556 16.7748 41.8711 16.3701 41.6176 16.1805L41.6049 16.2058Z" fill="white"/>
<path d="M40.946 16.6736C36.1558 13.0951 29.5787 11.4766 23.648 12.3744C20.7206 12.8169 15.0053 15.1689 16.2599 19.0509C17.0583 21.5166 21.4176 22.5408 22.6595 19.9992C23.686 17.9002 21.4937 16.1046 19.6942 17.5588C19.3013 17.8749 19.7322 18.4565 20.1631 18.3554C21.2909 18.1025 22.0132 18.583 21.4683 19.6957C20.4925 21.6936 16.9823 19.0635 17.2737 17.5588C17.7173 15.308 21.2909 13.8917 23.2171 13.525C29.414 12.3364 35.4461 14.4102 40.908 17.1035C41.2501 17.2679 41.2374 16.8886 40.946 16.6736Z" fill="white"/>
<path d="M25.891 0.475514C27.3864 1.52504 29.2112 1.92968 30.1617 3.62409C30.8713 4.88858 31.2515 6.29216 31.0867 7.72104C31.0487 8.11303 31.581 8.26476 31.8218 8.02451C32.8989 6.96234 31.6063 4.53452 31.0487 3.49764C30.0349 1.60091 28.0327 0.690477 26.0684 0.0582325C25.8023 -0.0302818 25.6756 0.349065 25.891 0.488159V0.475514Z" fill="white"/>
<path d="M25.5489 0.273192C25.6249 2.04348 25.815 3.95286 26.6641 5.53347C27.5131 7.11408 29.2619 7.55665 30.8333 8.10038C31.5683 8.35328 31.8471 7.22788 31.1501 6.96234C29.7308 6.40596 27.9947 6.22894 27.133 4.82535C26.3092 3.47235 26.4993 1.67677 26.1065 0.197323C26.0304 -0.106155 25.5489 -0.0429302 25.5616 0.273192H25.5489Z" fill="white"/>
<path d="M60.3729 10.2121C60.7404 11.211 61.8556 11.2742 62.6286 10.7179C62.6286 10.7179 62.9835 10.4017 62.768 10.5535C62.8567 10.4903 62.9708 10.4144 63.0468 10.3385C63.2242 10.1488 63.389 9.94653 63.5157 9.71892C63.7438 9.33957 64.0099 8.71997 63.6171 8.37856C63.4143 8.20153 63.1862 8.17624 62.9581 8.29005C62.6666 8.42914 62.6666 8.68204 62.5653 8.93494C62.4512 9.18783 62.2991 9.41544 62.1344 9.6304C62.0457 9.74421 62.0584 9.75685 62.1851 9.66834C62.0837 9.69363 62.0077 9.74421 61.9316 9.82008C61.8429 9.89595 61.7542 9.95917 61.6402 10.0098C61.3994 10.1362 61.26 9.94653 61.0826 9.80743C60.7911 9.56718 60.2209 9.78214 60.3729 10.2121Z" fill="white"/>
<path d="M24.8772 21.3017C28.3368 21.5925 33.1017 19.8981 32.7595 15.7505C32.7088 15.1183 31.7077 15.1057 31.7584 15.7505C32.0625 19.7337 27.7412 20.151 24.8139 20.7959C24.5097 20.8591 24.6111 21.2764 24.8772 21.3017Z" fill="white"/>
<path d="M24.8265 21.074C25.8023 19.936 26.664 18.7221 27.6652 17.6093C28.8437 16.2816 30.3391 15.7885 32.0752 15.6873C32.6962 15.6494 32.6962 14.7136 32.0752 14.7263C30.4785 14.7769 29.1225 15.2068 27.8553 16.1805C26.474 17.2426 24.9913 19.2026 24.4083 20.8211C24.3196 21.0614 24.6745 21.2637 24.8392 21.074H24.8265Z" fill="white"/>
<path d="M66.367 16.1046C63.1862 19.4934 57.4836 18.4186 53.5044 17.3944C49.6267 16.3954 45.3433 14.6378 42.5174 11.7042C42.1879 11.3628 41.6683 11.8812 41.9978 12.2226C45.2166 15.5609 50.3363 17.3311 54.7464 18.368C58.6241 19.2911 63.7438 19.6325 66.6585 16.3954C66.8359 16.2058 66.5445 15.9149 66.367 16.1046Z" fill="white"/>
</svg>
