<?xml version="1.0" encoding="UTF-8"?>
<svg id="Layer_1" xmlns="http://www.w3.org/2000/svg" version="1.1" viewBox="0 0 40.4 36">
  <!-- Generator: Adobe Illustrator 30.3.0, SVG Export Plug-In . SVG Version: 2.1.3 Build 182)  -->
  <defs>
    <style>
      .st0 {
        fill: #fff;
      }
    </style>
  </defs>
  <path class="st0" d="M39.3,15.3h0l-7-6V2.1c0-.7-.6-1.3-1.3-1.3h-3c-.7,0-1.3.6-1.3,1.3v2.4l-4.3-3.7c-1.2-1.1-3-1.1-4.3,0L1.1,15.3c-2.3,1.9-.9,5.6,2.1,5.6h1.9v12.3c0,1.6,1.3,2.8,2.8,2.8h6c1.6,0,2.8-1.3,2.8-2.8v-8.2c0-.7.6-1.2,1.2-1.2h4.6c.7,0,1.2.6,1.2,1.2v8.2c0,1.6,1.3,2.8,2.8,2.8h6.1c1.6,0,2.8-1.3,2.8-2.8v-12.3h1.9c3,0,4.3-3.7,2-5.6Z"/>
</svg>