<svg xmlns="http://www.w3.org/2000/svg" width="509" height="100" viewBox="0 0 509 100" fill="none">
  <path d="M39.7 11.2C42.1 11.2 44.3 11.3333 46.3 11.6C48.3 11.8 50 12.1333 51.4 12.6C52.8667 13.0667 54 13.6333 54.8 14.3C55.6667 14.9 56.1 15.6 56.1 16.4C56.1 16.9333 55.9667 17.6 55.7 18.4C55.5 19.1333 55.2333 19.9 54.9 20.7C54.5667 21.5 54.1667 22.3 53.7 23.1C53.3 23.9 52.9 24.5667 52.5 25.1C52.3 25.2333 52.0667 25.2333 51.8 25.1C51.6 24.9 51.5667 24.6667 51.7 24.4C53.1 21.9333 53.4 20.0333 52.6 18.7C51.6667 17.1667 49.8 15.8667 47 14.8C44.2 13.6667 40.9667 13.1 37.3 13.1C32.5 13.1 28.1333 13.9667 24.2 15.7C20.2667 17.3667 16.8667 19.7667 14 22.9C11.2 25.9667 9 29.6333 7.4 33.9C5.86666 38.1667 5.1 42.8667 5.1 48C5.1 51.7333 5.6 55.2 6.6 58.4C7.6 61.5333 9.06666 64.2667 11 66.6C12.9333 68.8667 15.3 70.6667 18.1 72C20.9 73.2667 24.1 73.9 27.7 73.9C32.5 73.9 36.5 72.4333 39.7 69.5C42.9 66.5 45.1667 62.5333 46.5 57.6C46.6333 57.2667 46.8333 57.1333 47.1 57.2C47.4333 57.2667 47.6 57.4667 47.6 57.8C47.3333 59.2 46.9333 60.7667 46.4 62.5C45.8667 64.1667 45.3 65.7667 44.7 67.3C44.1 68.7667 43.5 70.0667 42.9 71.2C42.3667 72.2667 41.9 72.8667 41.5 73C39.3667 73.8 37 74.4333 34.4 74.9C31.8 75.3667 29.0333 75.6 26.1 75.6C22.0333 75.6 18.3667 75 15.1 73.8C11.9 72.5333 9.16666 70.8 6.9 68.6C4.7 66.4 3 63.8 1.8 60.8C0.6 57.8 0 54.5667 0 51.1C0 45.7667 0.966666 40.7 2.9 35.9C4.83333 31.0333 7.53333 26.8 11 23.2C14.5333 19.5333 18.7333 16.6333 23.6 14.5C28.4667 12.3 33.8333 11.2 39.7 11.2ZM76.7641 69.3C76.8974 69.1667 77.0641 69.1667 77.2641 69.3C77.4641 69.4333 77.5307 69.6333 77.4641 69.9C76.0641 71.8333 74.6641 73.2667 73.2641 74.2C71.9307 75.1333 70.7974 75.6 69.8641 75.6C69.2641 75.6 68.7641 75.3 68.3641 74.7C68.0307 74.1 67.7974 73.3 67.6641 72.3C67.5974 71.2333 67.6307 70.0667 67.7641 68.8C67.9641 67.4667 68.2641 66.1 68.6641 64.7C66.8641 67.5 64.9641 69.9333 62.9641 72C60.9641 74 59.0307 75.2 57.1641 75.6C55.9641 75.6 54.9307 75.0333 54.0641 73.9C53.2641 72.7 52.8641 70.8667 52.8641 68.4C52.8641 66.2 53.2974 64.0333 54.1641 61.9C55.0974 59.7 56.3307 57.7333 57.8641 56C59.3974 54.2 61.1641 52.7667 63.1641 51.7C65.1641 50.6333 67.2641 50.1 69.4641 50.1C70.6641 50.1 71.6974 50.2333 72.5641 50.5C73.4307 50.7667 74.2307 51.1667 74.9641 51.7C75.3641 51.3667 75.8974 51.0667 76.5641 50.8C77.2974 50.4667 77.9641 50.3 78.5641 50.3C78.8974 50.3 78.9974 50.4667 78.8641 50.8C77.3307 52.6667 75.9974 54.7333 74.8641 57C73.7974 59.2667 72.9641 61.4667 72.3641 63.6C71.7641 65.7333 71.3641 67.6333 71.1641 69.3C71.0307 70.9 71.1641 72 71.5641 72.6C71.8974 73.0667 72.4974 73.1 73.3641 72.7C74.2307 72.2333 75.3641 71.1 76.7641 69.3ZM59.3641 72.2C60.0974 72.2 61.0307 71.7 62.1641 70.7C63.3641 69.6333 64.5974 68.2667 65.8641 66.6C67.1307 64.9333 68.3641 63.0667 69.5641 61C70.8307 58.8667 71.9307 56.7333 72.8641 54.6C72.5974 53.7333 71.9641 53.0333 70.9641 52.5C70.0307 51.9667 68.9307 51.7 67.6641 51.7C66.1974 51.7 64.7974 52.1 63.4641 52.9C62.1974 53.6333 61.0641 54.7 60.0641 56.1C59.0641 57.4333 58.2641 59.0333 57.6641 60.9C57.0641 62.7667 56.7641 64.8333 56.7641 67.1C56.7641 68.5667 56.9974 69.8 57.4641 70.8C57.9974 71.7333 58.6307 72.2 59.3641 72.2ZM100.759 50.4C101.092 50.5333 101.225 50.7333 101.159 51C101.092 51.2667 100.792 51.4333 100.259 51.5C99.1919 51.5667 97.9919 51.6333 96.6586 51.7C95.3919 51.7667 94.0919 51.8667 92.7586 52C91.4253 55.3333 90.3253 58.5333 89.4586 61.6C88.5919 64.6667 88.1586 67.2 88.1586 69.2C88.1586 71.4667 89.0253 72.6 90.7586 72.6C92.4919 72.6 94.3919 71.0667 96.4586 68C96.6586 67.8667 96.8586 67.9 97.0586 68.1C97.2586 68.2333 97.3253 68.4667 97.2586 68.8C96.6586 69.7333 95.9586 70.6333 95.1586 71.5C94.4253 72.3 93.6586 73 92.8586 73.6C92.0586 74.2 91.2919 74.7 90.5586 75.1C89.8253 75.4333 89.2253 75.6 88.7586 75.6C87.2919 75.6 86.1919 75.1667 85.4586 74.3C84.7919 73.3667 84.4586 72.2667 84.4586 71C84.4586 68.8 84.9253 66.0333 85.8586 62.7C86.7919 59.3667 87.9586 55.9333 89.3586 52.4C88.4919 52.5333 87.6586 52.6667 86.8586 52.8C86.0586 52.9333 85.2919 53.0667 84.5586 53.2C84.2253 53.1333 84.1253 52.9667 84.2586 52.7C84.4586 52.4333 84.7586 52.1667 85.1586 51.9C85.6253 51.6333 86.1586 51.4 86.7586 51.2C87.3586 50.9333 87.9253 50.8 88.4586 50.8C88.7919 50.7333 89.0586 50.7 89.2586 50.7C89.5253 50.7 89.7919 50.7 90.0586 50.7C90.9919 48.6333 91.9253 46.6667 92.8586 44.8C93.7919 42.8667 94.7253 41.1 95.6586 39.5C96.0586 39.1 96.4919 38.7667 96.9586 38.5C97.4919 38.1667 97.9919 37.9667 98.4586 37.9C98.9253 37.7667 99.2919 37.7333 99.5586 37.8C99.8253 37.8 99.9253 37.9 99.8586 38.1C98.7253 39.8333 97.5919 41.7667 96.4586 43.9C95.3919 46.0333 94.3586 48.2333 93.3586 50.5C94.5586 50.5 95.7586 50.5 96.9586 50.5C98.1586 50.4333 99.4253 50.4 100.759 50.4ZM100.848 74.7C103.848 63.2333 107.215 52.9 110.948 43.7C114.682 34.5 118.582 26.6667 122.648 20.2C126.782 13.7333 130.982 8.76667 135.248 5.30001C139.515 1.76667 143.648 0 147.648 0C149.115 0 150.315 0.3 151.248 0.9C152.248 1.43334 152.915 2.13334 153.248 3.00001C153.648 3.86667 153.748 4.83333 153.548 5.9C153.415 6.96667 152.948 8 152.148 9.00001C152.015 9.2 151.848 9.26667 151.648 9.2C151.448 9.13334 151.348 8.96667 151.348 8.7C151.615 7.36667 151.215 6.1 150.148 4.9C149.082 3.7 147.382 3.1 145.048 3.1C141.915 3.1 138.715 4.33334 135.448 6.8C132.182 9.26667 128.915 13.0667 125.648 18.2C122.382 23.2667 119.148 29.6667 115.948 37.4C112.815 45.1333 109.782 54.3 106.848 64.9C107.915 62.8333 109.148 60.9 110.548 59.1C111.948 57.2333 113.382 55.6333 114.848 54.3C116.315 52.9667 117.782 51.9333 119.248 51.2C120.782 50.4 122.248 50 123.648 50C124.448 50 125.048 50.2 125.448 50.6C125.848 51 126.048 51.4667 126.048 52C126.048 52.8667 125.748 53.8333 125.148 54.9C123.748 57.3667 122.582 59.9 121.648 62.5C120.782 65.1 120.348 67.4667 120.348 69.6C120.348 70.5333 120.448 71.3 120.648 71.9C120.915 72.5 121.315 72.8 121.848 72.8C122.515 72.8 123.215 72.4667 123.948 71.8C124.748 71.0667 125.448 70.2667 126.048 69.4C126.248 69.2667 126.448 69.3 126.648 69.5C126.848 69.6333 126.915 69.8333 126.848 70.1C126.448 70.7 125.948 71.3333 125.348 72C124.748 72.6 124.082 73.2 123.348 73.8C122.682 74.3333 121.982 74.7667 121.248 75.1C120.515 75.4333 119.848 75.6 119.248 75.6C117.582 75.6 116.748 74.2 116.748 71.4C116.748 69 117.148 66.4 117.948 63.6C118.748 60.7333 119.715 58.2 120.848 56C121.248 55.3333 121.448 54.7667 121.448 54.3C121.448 53.7 121.082 53.4 120.348 53.4C119.148 53.4 117.848 53.8667 116.448 54.8C115.048 55.7333 113.615 57.1 112.148 58.9C110.682 60.7 109.282 62.9 107.948 65.5C106.615 68.0333 105.415 70.9 104.348 74.1C104.215 74.5667 103.848 74.9333 103.248 75.2C102.715 75.4667 102.182 75.6 101.648 75.6C100.915 75.6 100.648 75.3 100.848 74.7ZM149.048 54.4C149.048 55.3333 148.681 56.2 147.948 57C147.214 57.8 146.214 58.5333 144.948 59.2C143.681 59.8 142.214 60.3667 140.548 60.9C138.948 61.4333 137.248 61.9333 135.448 62.4C135.381 63.1333 135.314 63.8667 135.248 64.6C135.248 65.3333 135.248 66.1333 135.248 67C135.248 68.6667 135.614 70.0667 136.348 71.2C137.081 72.3333 138.114 72.9 139.448 72.9C140.781 72.9 142.014 72.5667 143.148 71.9C144.348 71.2333 145.414 70.3333 146.348 69.2C146.614 69.0667 146.814 69.1 146.948 69.3C147.081 69.5 147.081 69.7333 146.948 70C145.814 71.5333 144.381 72.8667 142.648 74C140.981 75.0667 139.214 75.6 137.348 75.6C135.614 75.6 134.181 75.0333 133.048 73.9C131.981 72.7667 131.448 71.1 131.448 68.9C131.448 66.9 131.814 64.8 132.548 62.6C133.281 60.3333 134.248 58.2667 135.448 56.4C136.648 54.5333 138.014 53 139.548 51.8C141.148 50.6 142.814 50 144.548 50C145.814 50 146.881 50.4667 147.748 51.4C148.614 52.2667 149.048 53.2667 149.048 54.4ZM142.448 52.6C140.914 52.6 139.548 53.2667 138.348 54.6C137.148 55.9333 136.281 58.0333 135.748 60.9C138.948 60.4333 141.281 59.7667 142.748 58.9C144.281 57.9667 145.048 56.9333 145.048 55.8C145.048 54.8667 144.814 54.1 144.348 53.5C143.881 52.9 143.248 52.6 142.448 52.6ZM162.153 52.8C162.153 53.8 162.053 54.9667 161.853 56.3C161.653 57.6333 161.386 58.9667 161.053 60.3C162.386 57.1 163.853 54.6 165.453 52.8C167.053 50.9333 168.786 50 170.653 50C171.386 50 172.053 50.2 172.653 50.6C173.253 51 173.553 51.5667 173.553 52.3C173.553 52.8333 173.353 53.5333 172.953 54.4C172.553 55.2 172.153 55.8 171.753 56.2C171.353 56.4667 171.153 56.3667 171.153 55.9C171.153 54.7667 170.386 54.2 168.853 54.2C166.52 54.2 164.42 55.9667 162.553 59.5C160.686 62.9667 158.92 67.8 157.253 74C157.12 74.6667 156.653 75.1 155.853 75.3C155.12 75.5 154.486 75.6 153.953 75.6C153.22 75.6 153.053 75.2333 153.453 74.5C154.053 73.1 154.62 71.6 155.153 70C155.686 68.3333 156.186 66.6667 156.653 65C157.186 63.3333 157.62 61.7 157.953 60.1C158.286 58.5 158.553 57.0333 158.753 55.7C159.02 53.7 158.686 52.7 157.753 52.7C157.22 52.7 156.586 53 155.853 53.6C155.186 54.2 154.553 54.9 153.953 55.7C153.686 55.8333 153.453 55.8333 153.253 55.7C153.053 55.5 153.02 55.2667 153.153 55C154.153 53.7333 155.253 52.6 156.453 51.6C157.72 50.5333 158.886 50 159.953 50C161.42 50 162.153 50.9333 162.153 52.8ZM175.784 57C175.584 57.1333 175.384 57.1 175.184 56.9C175.051 56.6333 175.051 56.4 175.184 56.2C176.118 55.2667 177.384 54.2 178.984 53C180.584 51.8 182.184 50.8 183.784 50C184.318 50 184.584 50.3 184.584 50.9C183.718 52.4333 182.851 54.1 181.984 55.9C181.184 57.7 180.451 59.5 179.784 61.3C179.184 63.0333 178.684 64.7333 178.284 66.4C177.884 68 177.684 69.3333 177.684 70.4C177.684 71.8 178.151 72.5 179.084 72.5C179.818 72.5 180.518 72.2 181.184 71.6C181.918 70.9333 182.751 70.0667 183.684 69C183.818 68.8667 183.984 68.9 184.184 69.1C184.384 69.3 184.418 69.5333 184.284 69.8C183.084 71.2667 181.784 72.6 180.384 73.8C179.051 75 177.784 75.6 176.584 75.6C174.851 75.6 173.984 74.5 173.984 72.3C173.984 71.0333 174.184 69.5333 174.584 67.8C175.051 66 175.618 64.2 176.284 62.4C176.951 60.6 177.684 58.8667 178.484 57.2C179.351 55.5333 180.184 54.1 180.984 52.9C180.251 53.4333 179.318 54.1333 178.184 55C177.118 55.8 176.318 56.4667 175.784 57ZM184.784 45.7C184.584 45.9 184.384 45.9333 184.184 45.8C184.051 45.6 183.951 45.3667 183.884 45.1C183.818 44.7667 183.784 44.4 183.784 44C183.784 43.6 183.884 43.2667 184.084 43C185.818 40.6 188.251 38.0333 191.384 35.3C191.584 35.2333 191.784 35.3 191.984 35.5C192.184 35.6333 192.218 35.7667 192.084 35.9C190.684 37.1667 189.351 38.7 188.084 40.5C186.818 42.2333 185.718 43.9667 184.784 45.7ZM214.726 69.2C214.926 69.0667 215.126 69.0667 215.326 69.2C215.526 69.3333 215.592 69.5333 215.526 69.8C214.392 71.3333 213.126 72.7 211.726 73.9C210.392 75.0333 209.126 75.6 207.926 75.6C205.859 75.6 204.826 74.2667 204.826 71.6C204.826 69.3333 205.226 66.8333 206.026 64.1C206.826 61.3 207.926 58.5 209.326 55.7C209.592 55.2333 209.726 54.7667 209.726 54.3C209.726 53.5667 209.392 53.2 208.726 53.2C206.259 53.2 203.526 54.9 200.526 58.3C197.592 61.7 194.859 67.0333 192.326 74.3C192.192 74.7 191.826 75.0333 191.226 75.3C190.626 75.5 190.059 75.6 189.526 75.6C188.792 75.6 188.526 75.3 188.726 74.7C189.859 71.8333 191.026 68.6 192.226 65C193.492 61.4 194.592 57.8333 195.526 54.3C195.792 53.0333 195.559 52.4 194.826 52.4C194.159 52.4 193.492 52.7333 192.826 53.4C192.159 54.0667 191.459 54.9333 190.726 56C190.592 56.1333 190.426 56.1 190.226 55.9C190.092 55.7 190.059 55.5 190.126 55.3C190.859 54.1667 191.859 53 193.126 51.8C194.392 50.6 195.759 50 197.226 50C198.892 50 199.459 51.1333 198.926 53.4C198.659 54.8667 198.292 56.4333 197.826 58.1C197.359 59.7 196.859 61.3 196.326 62.9C197.259 61.1 198.359 59.4 199.626 57.8C200.892 56.2 202.192 54.8333 203.526 53.7C204.926 52.5667 206.292 51.6667 207.626 51C209.026 50.3333 210.326 50 211.526 50C212.326 50 212.926 50.2 213.326 50.6C213.792 51 214.026 51.4667 214.026 52C214.026 52.8667 213.826 53.7333 213.426 54.6C212.026 57.1333 210.826 59.8 209.826 62.6C208.892 65.3333 208.426 67.8667 208.426 70.2C208.426 71.8667 208.959 72.7 210.026 72.7C211.426 72.7 212.992 71.5333 214.726 69.2ZM237.227 54.4C237.227 55.3333 236.861 56.2 236.127 57C235.394 57.8 234.394 58.5333 233.127 59.2C231.861 59.8 230.394 60.3667 228.727 60.9C227.127 61.4333 225.427 61.9333 223.627 62.4C223.561 63.1333 223.494 63.8667 223.427 64.6C223.427 65.3333 223.427 66.1333 223.427 67C223.427 68.6667 223.794 70.0667 224.527 71.2C225.261 72.3333 226.294 72.9 227.627 72.9C228.961 72.9 230.194 72.5667 231.327 71.9C232.527 71.2333 233.594 70.3333 234.527 69.2C234.794 69.0667 234.994 69.1 235.127 69.3C235.261 69.5 235.261 69.7333 235.127 70C233.994 71.5333 232.561 72.8667 230.827 74C229.161 75.0667 227.394 75.6 225.527 75.6C223.794 75.6 222.361 75.0333 221.227 73.9C220.161 72.7667 219.627 71.1 219.627 68.9C219.627 66.9 219.994 64.8 220.727 62.6C221.461 60.3333 222.427 58.2667 223.627 56.4C224.827 54.5333 226.194 53 227.727 51.8C229.327 50.6 230.994 50 232.727 50C233.994 50 235.061 50.4667 235.927 51.4C236.794 52.2667 237.227 53.2667 237.227 54.4ZM230.627 52.6C229.094 52.6 227.727 53.2667 226.527 54.6C225.327 55.9333 224.461 58.0333 223.927 60.9C227.127 60.4333 229.461 59.7667 230.927 58.9C232.461 57.9667 233.227 56.9333 233.227 55.8C233.227 54.8667 232.994 54.1 232.527 53.5C232.061 52.9 231.427 52.6 230.627 52.6ZM270.472 50C272.272 50 273.605 50.6 274.472 51.8C275.339 53 275.772 54.5667 275.772 56.5C275.772 58.7667 275.339 61.0333 274.472 63.3C273.605 65.5667 272.505 67.6333 271.172 69.5C269.839 71.3 268.372 72.7667 266.772 73.9C265.239 75.0333 263.805 75.6 262.472 75.6C260.872 75.6 259.605 74.9667 258.672 73.7C257.739 72.4333 257.272 70.6333 257.272 68.3C257.272 66.4333 257.639 64.4333 258.372 62.3C259.105 60.1667 260.072 58.2 261.272 56.4C262.539 54.5333 263.939 53 265.472 51.8C267.072 50.6 268.739 50 270.472 50ZM264.472 72.5C265.472 72.5 266.439 72.1667 267.372 71.5C268.372 70.7667 269.239 69.8333 269.972 68.7C270.705 67.5 271.272 66.1333 271.672 64.6C272.139 63.0667 272.372 61.4667 272.372 59.8C272.372 57.8 272.039 56.2333 271.372 55.1C270.705 53.9 269.605 53.3 268.072 53.3C267.072 53.3 266.105 53.6667 265.172 54.4C264.239 55.0667 263.405 56 262.672 57.2C262.005 58.3333 261.472 59.7 261.072 61.3C260.672 62.8333 260.472 64.4667 260.472 66.2C260.472 70.4 261.805 72.5 264.472 72.5ZM324.133 2.9C325.399 2.9 326.466 3.16667 327.333 3.7C328.199 4.23334 328.833 4.93334 329.233 5.8C329.699 6.66667 329.933 7.63333 329.933 8.7C329.933 9.7 329.699 10.7 329.233 11.7C329.099 11.9 328.933 11.9667 328.733 11.9C328.533 11.8333 328.366 11.7 328.233 11.5C328.099 10.1667 327.466 9 326.333 8C325.266 6.93334 323.566 6.4 321.233 6.4C318.699 6.4 316.266 7.06667 313.933 8.4C311.666 9.73334 309.333 12.0667 306.933 15.4C304.599 18.7333 302.199 23.2333 299.733 28.9C297.333 34.5667 294.733 41.7333 291.933 50.4C293.466 50.3333 295.066 50.3 296.733 50.3C298.466 50.3 300.233 50.3 302.033 50.3C302.366 50.4333 302.499 50.6333 302.433 50.9C302.433 51.1 302.133 51.2667 301.533 51.4C299.866 51.4667 298.199 51.5333 296.533 51.6C294.866 51.6667 293.166 51.7667 291.433 51.9C291.233 52.6333 290.999 53.3 290.733 53.9C287.999 62.6333 285.199 69.9333 282.333 75.8C279.466 81.7333 276.533 86.4667 273.533 90C270.533 93.6 267.499 96.1333 264.433 97.6C261.299 99.1333 258.133 99.9 254.933 99.9C252.666 99.9 251.066 99.4 250.133 98.4C249.133 97.4 248.633 96.2333 248.633 94.9C248.633 94.3 248.766 93.6333 249.033 92.9C249.299 92.2333 249.633 91.6333 250.033 91.1C250.233 90.9 250.433 90.8667 250.633 91C250.766 91.1333 250.833 91.3 250.833 91.5C250.566 92.0333 250.466 92.6333 250.533 93.3C250.599 94.0333 250.899 94.7 251.433 95.3C251.899 95.9667 252.633 96.5 253.633 96.9C254.566 97.3667 255.799 97.6 257.333 97.6C258.933 97.6 260.533 97.4 262.133 97C263.666 96.6 265.233 95.8333 266.833 94.7C268.366 93.6333 269.933 92.1 271.533 90.1C273.066 88.1 274.666 85.4667 276.333 82.2C277.999 79 279.733 75.1 281.533 70.5C283.333 65.9 285.199 60.4333 287.133 54.1C287.266 53.7667 287.366 53.4667 287.433 53.2C287.499 52.8667 287.599 52.5333 287.733 52.2C286.599 52.3333 285.466 52.5 284.333 52.7C283.199 52.8333 282.066 53.0333 280.933 53.3C280.599 53.2333 280.499 53.0667 280.633 52.8C280.833 52.5333 281.133 52.2667 281.533 52C281.999 51.7333 282.533 51.5 283.133 51.3C283.733 51.0333 284.299 50.8667 284.833 50.8C285.366 50.7333 285.899 50.7 286.433 50.7C287.033 50.6333 287.633 50.5667 288.233 50.5C290.633 43.3 293.199 36.8 295.933 31C298.733 25.1333 301.666 20.1333 304.733 16C307.799 11.8 310.966 8.56667 314.233 6.3C317.499 4.03333 320.799 2.9 324.133 2.9ZM385.497 23C385.497 28.1333 384.397 32.9 382.197 37.3C379.997 41.6333 377.097 45.8667 373.497 50C369.897 54.0667 365.797 58.2 361.197 62.4C356.597 66.5333 351.897 70.9667 347.097 75.7C346.63 75.7 346.33 75.6 346.197 75.4C346.13 75.1333 346.13 74.8 346.197 74.4C346.33 74 346.497 73.5667 346.697 73.1C346.897 72.6333 347.097 72.1667 347.297 71.7C348.764 68.1667 349.964 64.3 350.897 60.1C351.83 55.8333 352.397 51.6 352.597 47.4C352.864 43.1333 352.764 39.0333 352.297 35.1C351.897 31.1 351.03 27.5667 349.697 24.5C348.43 21.4333 346.73 19 344.597 17.2C342.464 15.3333 339.83 14.4 336.697 14.4C332.164 14.4 328.464 16.3333 325.597 20.2C322.73 24 320.33 29.5667 318.397 36.9C318.264 37.1667 318.064 37.2667 317.797 37.2C317.53 37.1333 317.397 36.9667 317.397 36.7C319.33 28.3667 322.064 22.0333 325.597 17.7C329.13 13.3667 333.397 11.2 338.397 11.2C341.464 11.2 344.097 11.9667 346.297 13.5C348.497 15.0333 350.33 17.1333 351.797 19.8C353.264 22.4667 354.33 25.6333 354.997 29.3C355.664 32.9 355.997 36.8333 355.997 41.1C355.997 45.3 355.63 49.7333 354.897 54.4C354.23 59 353.264 63.6333 351.997 68.3C356.664 64.4333 360.864 60.8 364.597 57.4C368.33 54 371.464 50.6667 373.997 47.4C376.53 44.0667 378.464 40.7 379.797 37.3C381.197 33.9 381.897 30.2667 381.897 26.4C381.897 23.0667 381.13 20.4333 379.597 18.5C378.064 16.5667 376.13 15.5333 373.797 15.4C371.93 15.3333 370.33 16.6667 368.997 19.4C368.797 19.5333 368.597 19.5333 368.397 19.4C368.197 19.2667 368.097 19.0333 368.097 18.7C368.43 17.7667 368.897 16.8667 369.497 16C370.164 15.0667 370.83 14.2667 371.497 13.6C372.23 12.8667 372.964 12.3 373.697 11.9C374.43 11.4333 375.064 11.2 375.597 11.2C376.997 11.2 378.297 11.5 379.497 12.1C380.697 12.7 381.73 13.5333 382.597 14.6C383.53 15.6667 384.23 16.9333 384.697 18.4C385.23 19.8 385.497 21.3333 385.497 23ZM382.71 57C382.51 57.1333 382.31 57.1 382.11 56.9C381.977 56.6333 381.977 56.4 382.11 56.2C383.043 55.2667 384.31 54.2 385.91 53C387.51 51.8 389.11 50.8 390.71 50C391.243 50 391.51 50.3 391.51 50.9C390.643 52.4333 389.777 54.1 388.91 55.9C388.11 57.7 387.377 59.5 386.71 61.3C386.11 63.0333 385.61 64.7333 385.21 66.4C384.81 68 384.61 69.3333 384.61 70.4C384.61 71.8 385.077 72.5 386.01 72.5C386.743 72.5 387.443 72.2 388.11 71.6C388.843 70.9333 389.677 70.0667 390.61 69C390.743 68.8667 390.91 68.9 391.11 69.1C391.31 69.3 391.343 69.5333 391.21 69.8C390.01 71.2667 388.71 72.6 387.31 73.8C385.977 75 384.71 75.6 383.51 75.6C381.777 75.6 380.91 74.5 380.91 72.3C380.91 71.0333 381.11 69.5333 381.51 67.8C381.977 66 382.543 64.2 383.21 62.4C383.877 60.6 384.61 58.8667 385.41 57.2C386.277 55.5333 387.11 54.1 387.91 52.9C387.177 53.4333 386.243 54.1333 385.11 55C384.043 55.8 383.243 56.4667 382.71 57ZM391.71 45.7C391.51 45.9 391.31 45.9333 391.11 45.8C390.977 45.6 390.877 45.3667 390.81 45.1C390.743 44.7667 390.71 44.4 390.71 44C390.71 43.6 390.81 43.2667 391.01 43C392.743 40.6 395.177 38.0333 398.31 35.3C398.51 35.2333 398.71 35.3 398.91 35.5C399.11 35.6333 399.143 35.7667 399.01 35.9C397.61 37.1667 396.277 38.7 395.01 40.5C393.743 42.2333 392.643 43.9667 391.71 45.7ZM411.252 58.1C410.918 58.1 410.752 57.9333 410.752 57.6C411.285 56.2667 411.285 55.1 410.752 54.1C410.285 53.1 409.285 52.6 407.752 52.6C406.685 52.6 405.685 53 404.752 53.8C403.818 54.5333 403.018 55.6 402.352 57C401.685 58.3333 401.152 59.9333 400.752 61.8C400.352 63.6 400.152 65.5667 400.152 67.7C400.152 70.9667 401.285 72.6 403.552 72.6C406.152 72.6 408.752 71.0333 411.352 67.9C411.618 67.7667 411.852 67.8 412.052 68C412.252 68.1333 412.285 68.3667 412.152 68.7C410.618 70.6333 408.918 72.3 407.052 73.7C405.185 75.0333 403.352 75.7 401.552 75.7C400.085 75.7 398.852 75.1667 397.852 74.1C396.918 73.0333 396.452 71.5667 396.452 69.7C396.452 67.3667 396.818 65.0333 397.552 62.7C398.352 60.3667 399.352 58.2667 400.552 56.4C401.818 54.5333 403.252 53.0333 404.852 51.9C406.452 50.7 408.085 50.1 409.752 50.1C411.152 50.1 412.252 50.4333 413.052 51.1C413.852 51.7667 414.252 52.5667 414.252 53.5C414.252 53.8333 414.152 54.2333 413.952 54.7C413.752 55.1667 413.485 55.6333 413.152 56.1C412.885 56.5667 412.552 57 412.152 57.4C411.818 57.7333 411.518 57.9667 411.252 58.1ZM435.364 54.4C435.364 55.3333 434.997 56.2 434.264 57C433.531 57.8 432.531 58.5333 431.264 59.2C429.997 59.8 428.531 60.3667 426.864 60.9C425.264 61.4333 423.564 61.9333 421.764 62.4C421.697 63.1333 421.631 63.8667 421.564 64.6C421.564 65.3333 421.564 66.1333 421.564 67C421.564 68.6667 421.931 70.0667 422.664 71.2C423.397 72.3333 424.431 72.9 425.764 72.9C427.097 72.9 428.331 72.5667 429.464 71.9C430.664 71.2333 431.731 70.3333 432.664 69.2C432.931 69.0667 433.131 69.1 433.264 69.3C433.397 69.5 433.397 69.7333 433.264 70C432.131 71.5333 430.697 72.8667 428.964 74C427.297 75.0667 425.531 75.6 423.664 75.6C421.931 75.6 420.497 75.0333 419.364 73.9C418.297 72.7667 417.764 71.1 417.764 68.9C417.764 66.9 418.131 64.8 418.864 62.6C419.597 60.3333 420.564 58.2667 421.764 56.4C422.964 54.5333 424.331 53 425.864 51.8C427.464 50.6 429.131 50 430.864 50C432.131 50 433.197 50.4667 434.064 51.4C434.931 52.2667 435.364 53.2667 435.364 54.4ZM428.764 52.6C427.231 52.6 425.864 53.2667 424.664 54.6C423.464 55.9333 422.597 58.0333 422.064 60.9C425.264 60.4333 427.597 59.7667 429.064 58.9C430.597 57.9667 431.364 56.9333 431.364 55.8C431.364 54.8667 431.131 54.1 430.664 53.5C430.197 52.9 429.564 52.6 428.764 52.6ZM448.47 52.8C448.47 53.8 448.37 54.9667 448.17 56.3C447.97 57.6333 447.703 58.9667 447.37 60.3C448.703 57.1 450.17 54.6 451.77 52.8C453.37 50.9333 455.103 50 456.97 50C457.703 50 458.37 50.2 458.97 50.6C459.57 51 459.87 51.5667 459.87 52.3C459.87 52.8333 459.67 53.5333 459.27 54.4C458.87 55.2 458.47 55.8 458.07 56.2C457.67 56.4667 457.47 56.3667 457.47 55.9C457.47 54.7667 456.703 54.2 455.17 54.2C452.836 54.2 450.736 55.9667 448.87 59.5C447.003 62.9667 445.236 67.8 443.57 74C443.436 74.6667 442.97 75.1 442.17 75.3C441.436 75.5 440.803 75.6 440.27 75.6C439.536 75.6 439.37 75.2333 439.77 74.5C440.37 73.1 440.936 71.6 441.47 70C442.003 68.3333 442.503 66.6667 442.97 65C443.503 63.3333 443.936 61.7 444.27 60.1C444.603 58.5 444.87 57.0333 445.07 55.7C445.336 53.7 445.003 52.7 444.07 52.7C443.536 52.7 442.903 53 442.17 53.6C441.503 54.2 440.87 54.9 440.27 55.7C440.003 55.8333 439.77 55.8333 439.57 55.7C439.37 55.5 439.336 55.2667 439.47 55C440.47 53.7333 441.57 52.6 442.77 51.6C444.036 50.5333 445.203 50 446.27 50C447.736 50 448.47 50.9333 448.47 52.8ZM473.101 50C474.901 50 476.234 50.6 477.101 51.8C477.967 53 478.401 54.5667 478.401 56.5C478.401 58.7667 477.967 61.0333 477.101 63.3C476.234 65.5667 475.134 67.6333 473.801 69.5C472.467 71.3 471.001 72.7667 469.401 73.9C467.867 75.0333 466.434 75.6 465.101 75.6C463.501 75.6 462.234 74.9667 461.301 73.7C460.367 72.4333 459.901 70.6333 459.901 68.3C459.901 66.4333 460.267 64.4333 461.001 62.3C461.734 60.1667 462.701 58.2 463.901 56.4C465.167 54.5333 466.567 53 468.101 51.8C469.701 50.6 471.367 50 473.101 50ZM467.101 72.5C468.101 72.5 469.067 72.1667 470.001 71.5C471.001 70.7667 471.867 69.8333 472.601 68.7C473.334 67.5 473.901 66.1333 474.301 64.6C474.767 63.0667 475.001 61.4667 475.001 59.8C475.001 57.8 474.667 56.2333 474.001 55.1C473.334 53.9 472.234 53.3 470.701 53.3C469.701 53.3 468.734 53.6667 467.801 54.4C466.867 55.0667 466.034 56 465.301 57.2C464.634 58.3333 464.101 59.7 463.701 61.3C463.301 62.8333 463.101 64.4667 463.101 66.2C463.101 70.4 464.434 72.5 467.101 72.5ZM504.662 52.4C504.728 52.2 504.895 52 505.162 51.8C505.428 51.5333 505.728 51.2667 506.062 51C506.462 50.7333 506.828 50.5333 507.162 50.4C507.562 50.2 507.862 50.1 508.062 50.1C508.662 50.1 508.895 50.3333 508.762 50.8C507.295 54.9333 505.862 58.9667 504.462 62.9C503.062 66.7667 501.562 70.8 499.962 75C498.162 79.6667 496.228 83.5667 494.162 86.7C492.162 89.9 490.028 92.4667 487.762 94.4C485.562 96.4 483.262 97.8333 480.862 98.7C478.462 99.5667 475.995 100 473.462 100C469.928 100 467.262 99.1 465.462 97.3C463.595 95.5667 462.662 93.4 462.662 90.8C462.662 89.6 462.995 88.3333 463.662 87C464.262 85.6667 465.228 84.5 466.562 83.5C466.762 83.3667 466.962 83.4333 467.162 83.7C467.295 83.9667 467.295 84.1667 467.162 84.3C466.095 85.5667 465.562 87 465.562 88.6C465.562 91.4 466.362 93.6667 467.962 95.4C469.562 97.1333 471.995 98 475.262 98C477.595 98 479.728 97.6333 481.662 96.9C483.662 96.1667 485.528 94.8667 487.262 93C489.062 91.1333 490.762 88.6333 492.362 85.5C494.028 82.3667 495.728 78.4333 497.462 73.7C498.195 71.5 498.895 69.4667 499.562 67.6C500.295 65.7333 501.028 63.8 501.762 61.8C499.228 65.8 496.562 69.0667 493.762 71.6C491.028 74.1333 488.595 75.5 486.462 75.7C485.595 75.7 484.962 75.3 484.562 74.5C484.162 73.7 483.962 72.6 483.962 71.2C483.962 70 484.095 68.7 484.362 67.3C484.628 65.8333 484.995 64.3333 485.462 62.8C485.995 61.2667 486.628 59.7333 487.362 58.2C488.162 56.6 489.028 55.0667 489.962 53.6C489.228 54.1333 488.462 54.7333 487.662 55.4C486.862 56 486.195 56.5667 485.662 57.1C485.462 57.2333 485.262 57.2 485.062 57C484.928 56.7333 484.928 56.5 485.062 56.3C485.995 55.3667 487.262 54.3 488.862 53.1C490.462 51.9 492.028 50.9 493.562 50.1C494.228 50.1 494.495 50.4 494.362 51C493.362 52.3333 492.428 53.8333 491.562 55.5C490.762 57.1 490.062 58.7333 489.462 60.4C488.862 62 488.395 63.6 488.062 65.2C487.728 66.8 487.562 68.2333 487.562 69.5C487.562 71.3667 488.195 72.3 489.462 72.3C490.528 72.3 491.795 71.6 493.262 70.2C494.795 68.7333 496.295 67 497.762 65C499.295 62.9333 500.662 60.7667 501.862 58.5C503.128 56.1667 504.062 54.1333 504.662 52.4Z" fill="white"/>
</svg>