<?xml version="1.0" encoding="UTF-8"?>
<svg id="Layer_2" data-name="Layer 2" xmlns="http://www.w3.org/2000/svg" viewBox="0 0 32 32">
  <defs>
    <style>
      .cls-1 {
        fill: #fff;
        fill-rule: evenodd;
      }
    </style>
  </defs>
  <g id="Layer_1-2" data-name="Layer 1">
    <g>
      <path class="cls-1" d="M11.56,9.84l1.49-.41,10.52-2.77c.24,0,.43.18.43.41v12.75c0,1.39-1.34,2.51-2.99,2.51-1.65,0-2.99-1.13-2.99-2.51s1.34-2.51,2.99-2.51c.55,0,1.07.13,1.52.35v-7.12l-9.94,2.6v9.67c0,1.39-1.34,2.51-2.99,2.51s-2.99-1.12-2.99-2.51,1.34-2.51,2.99-2.51c.55,0,1.07.13,1.52.35v-10.4c0-.23.19-.41.43-.41Z"/>
      <path class="cls-1" d="M16,0C7.16,0,0,7.16,0,16s7.16,16,16,16,16-7.16,16-16S24.84,0,16,0ZM16,31.06C7.68,31.06.94,24.32.94,16S7.68.94,16,.94s15.06,6.74,15.06,15.06-6.74,15.06-15.06,15.06Z"/>
    </g>
  </g>
</svg>