<?xml version="1.0" encoding="UTF-8"?>
<svg id="Layer_2" xmlns="http://www.w3.org/2000/svg" version="1.1" viewBox="0 0 32 32">
  <!-- Generator: Adobe Illustrator 30.3.0, SVG Export Plug-In . SVG Version: 2.1.3 Build 182)  -->
  <defs>
    <style>
      .st0 {
        fill: #fff;
        fill-rule: evenodd;
      }
    </style>
  </defs>
  <path class="st0" d="M16,0C7.2,0,0,7.2,0,16s7.2,16,16,16,16-7.2,16-16S24.8,0,16,0ZM31.1,16c0,3.9-1.5,7.4-3.9,10.1l-4.3-4.3c.7-.5,1.1-1.2,1.1-2V7.1c0-.2-.2-.4-.4-.4l-10.5,2.8-1.5.4h0c-.2,0-.3,0-.4.2l-5.2-5.2c2.7-2.4,6.2-3.9,10.1-3.9,8.3,0,15.1,6.7,15.1,15.1ZM13.9,12.8l8.6-2.3v7.1c-.4-.2-1-.3-1.5-.3s-1.4.2-2,.6l-5.1-5.1ZM.9,16c0-4,1.5-7.6,4-10.3l6.1,6.1v8.8c-.5-.2-1-.3-1.5-.3-1.6,0-3,1.1-3,2.5s1.3,2.5,3,2.5,3-1.1,3-2.5v-9.5l5.6,5.6c-.1.3-.2.6-.2.9,0,1.4,1.3,2.5,3,2.5s.3,0,.5,0l4.7,4.7c-2.7,2.5-6.3,4-10.3,4C7.7,31.1.9,24.3.9,16Z"/>
</svg>