<?xml version="1.0" encoding="UTF-8"?>
<svg id="Layer_1" data-name="Layer 1" xmlns="http://www.w3.org/2000/svg" viewBox="0 0 39.99 40">
  <defs>
    <style>
      .cls-1 {
        fill: #fff;
      }

      .cls-2 {
        fill: none;
        stroke: #fff;
        stroke-miterlimit: 10;
        stroke-width: 2px;
      }
    </style>
  </defs>
  <path class="cls-1" d="M34.14,5.86C30.36,2.08,25.34,0,20,0S9.64,2.08,5.86,5.86C2.08,9.64,0,14.66,0,20s2.08,10.36,5.86,14.15c3.78,3.77,8.8,5.85,14.14,5.85s10.36-2.08,14.14-5.85c3.77-3.78,5.85-8.8,5.85-14.14s-2.08-10.36-5.85-14.15ZM20,38.4C9.85,38.4,1.6,30.15,1.6,20S9.85,1.6,20,1.6s18.4,8.26,18.4,18.4-8.26,18.4-18.4,18.4Z"/>
  <g>
    <rect class="cls-2" x="10.75" y="10.82" width="7.06" height="18.35" rx="3.53" ry="3.53"/>
    <rect class="cls-2" x="22.19" y="10.82" width="7.06" height="18.35" rx="3.53" ry="3.53"/>
  </g>
</svg>