<svg width="40" height="40" viewBox="0 0 40 40" fill="none" xmlns="http://www.w3.org/2000/svg">
<path d="M34.14 5.86C30.365 2.08 25.34 0 20 0C14.66 0 9.635 2.08 5.86 5.86C2.08 9.635 0 14.66 0 20C0 25.34 2.08 30.365 5.86 34.145C9.635 37.92 14.66 40 20 40C25.34 40 30.365 37.92 34.14 34.145C37.915 30.37 39.995 25.345 39.995 20.005C39.995 14.665 37.915 9.64 34.14 5.86ZM20 38.4C9.855 38.4 1.6 30.145 1.6 20C1.6 9.855 9.855 1.6 20 1.6C30.145 1.6 38.4 9.855 38.4 20C38.4 30.145 30.145 38.4 20 38.4ZM29.36 16.89L16.245 9.315C15.185 8.705 13.975 8.705 12.915 9.315C11.855 9.925 11.25 10.975 11.25 12.2V27.345C11.25 28.57 11.855 29.62 12.915 30.23C13.445 30.535 14.015 30.685 14.58 30.685C15.145 30.685 15.715 30.535 16.245 30.23L29.36 22.655C30.42 22.045 31.025 20.995 31.025 19.77C31.025 18.545 30.42 17.495 29.36 16.885V16.89ZM28.56 21.27L15.445 28.845C14.885 29.165 14.275 29.165 13.715 28.845C13.155 28.525 12.85 27.99 12.85 27.345V12.2C12.85 11.555 13.155 11.025 13.715 10.7C13.995 10.54 14.285 10.46 14.58 10.46C14.875 10.46 15.165 10.54 15.445 10.7L28.56 18.275C29.12 18.595 29.425 19.13 29.425 19.775C29.425 20.42 29.12 20.95 28.56 21.275V21.27Z" fill="white"/>
</svg>
